<mxfile host="Electron" modified="2023-08-15T14:02:56.340Z" agent="5.0 (Windows NT 10.0; Win64; x64) AppleWebKit/537.36 (KHTML, like Gecko) draw.io/20.3.0 Chrome/104.0.5112.114 Electron/20.1.3 Safari/537.36" etag="0x5GKJzqyz8qRI1XQRLm" compressed="false" version="20.3.0" type="device">
  <diagram name="IM005B" id="U_K10hOi9t17pkylgMFW">
    <mxGraphModel dx="1422" dy="857" grid="1" gridSize="2" guides="1" tooltips="1" connect="1" arrows="1" fold="1" page="1" pageScale="1" pageWidth="1169" pageHeight="827" math="0" shadow="0">
      <root>
        <mxCell id="bKZOwYIWIrB60Y2MbUgO-0" />
        <mxCell id="bKZOwYIWIrB60Y2MbUgO-124" value="Connection" style="locked=1;" parent="bKZOwYIWIrB60Y2MbUgO-0" />
        <object label="Connection" PipingConnector="N" LabelConnector="N" SignalConnector="Y" Direction="135" AuxiliaryConnector="N" id="1pMpBBGL7QA4fPCnvlqa-0">
          <mxCell style="vsdxID=1407;fillColor=none;gradientColor=none;shape=stencil(rVFbDsIgEDwNnyQU4glqvcfGblsilmZBS28vZGMsxg9j/JvZmX1kR5g2TLCg0CpE8hdcbR8nYY5CaztPSDZmJEwnTDt4wpH8be6ZL1CcBV39vUxI3KdKh1YbswPTEzuBzlmiVGmKau9zUKM+jlJJQrJBko8QrZ+rrQ5oRJnXyMHBWElhRVx25ebnw/5zVvPFWRm83jxY5zilvf4eSy5xpKZ7AA==);strokeColor=#00FF00;strokeWidth=1;points=[[0.5,0.5,0,0,0]];labelBackgroundColor=none;rounded=0;html=1;whiteSpace=wrap;aspect=fixed;noLabel=1;snapToPoint=1;container=0;fontSize=16;" parent="bKZOwYIWIrB60Y2MbUgO-124" vertex="1">
            <mxGeometry x="326" y="302" width="12" height="12" as="geometry" />
          </mxCell>
        </object>
        <mxCell id="bKZOwYIWIrB60Y2MbUgO-133" value="Label" style="" parent="bKZOwYIWIrB60Y2MbUgO-0" />
        <object label="%LabelLines%&amp;nbsp; &amp;nbsp; &amp;nbsp; &amp;nbsp; &amp;nbsp; &amp;nbsp;%LabelIndex%" placeholders="1" LabelLines="1" LabelIndex="C" id="bKZOwYIWIrB60Y2MbUgO-134">
          <mxCell style="rounded=0;whiteSpace=wrap;html=1;fillColor=none;strokeColor=#FF0000;fontColor=#FF0000;fontSize=10;align=left;noLabel=0;" parent="bKZOwYIWIrB60Y2MbUgO-133" vertex="1">
            <mxGeometry x="360" y="288" width="80" height="16" as="geometry" />
          </mxCell>
        </object>
        <object label="%LabelLines%&amp;nbsp; &amp;nbsp; &amp;nbsp; &amp;nbsp; &amp;nbsp; &amp;nbsp;%LabelIndex%" placeholders="1" LabelLines="1" LabelIndex="B" id="bKZOwYIWIrB60Y2MbUgO-135">
          <mxCell style="rounded=0;whiteSpace=wrap;html=1;fillColor=none;strokeColor=#FF0000;fontColor=#FF0000;fontSize=10;align=left;noLabel=0;" parent="bKZOwYIWIrB60Y2MbUgO-133" vertex="1">
            <mxGeometry x="360" y="176" width="80" height="16" as="geometry" />
          </mxCell>
        </object>
        <object label="%LabelLines%&amp;nbsp; &amp;nbsp; &amp;nbsp; &amp;nbsp; &amp;nbsp; &amp;nbsp;%LabelIndex%" placeholders="1" LabelLines="1" LabelIndex="A" id="bKZOwYIWIrB60Y2MbUgO-136">
          <mxCell style="rounded=0;whiteSpace=wrap;html=1;fillColor=none;strokeColor=#FF0000;fontColor=#FF0000;fontSize=10;align=left;noLabel=0;" parent="bKZOwYIWIrB60Y2MbUgO-133" vertex="1">
            <mxGeometry x="224" y="144" width="80" height="16" as="geometry" />
          </mxCell>
        </object>
        <mxCell id="bKZOwYIWIrB60Y2MbUgO-137" value="Origo" style="locked=1;" parent="bKZOwYIWIrB60Y2MbUgO-0" />
        <object label="origo" id="bKZOwYIWIrB60Y2MbUgO-138">
          <mxCell style="vsdxID=1407;fillColor=none;gradientColor=none;shape=stencil(rVFbDsIgEDwNnyQU4glqvcfGblsilmZBS28vZGMsxg9j/JvZmX1kR5g2TLCg0CpE8hdcbR8nYY5CaztPSDZmJEwnTDt4wpH8be6ZL1CcBV39vUxI3KdKh1YbswPTEzuBzlmiVGmKau9zUKM+jlJJQrJBko8QrZ+rrQ5oRJnXyMHBWElhRVx25ebnw/5zVvPFWRm83jxY5zilvf4eSy5xpKZ7AA==);strokeColor=#ff0000;strokeWidth=1;points=[[0.5,0.5,0,0,0]];labelBackgroundColor=none;rounded=0;html=1;whiteSpace=wrap;aspect=fixed;noLabel=1;snapToPoint=1;" parent="bKZOwYIWIrB60Y2MbUgO-137" vertex="1">
            <mxGeometry x="396" y="236" width="7.874" height="7.87" as="geometry" />
          </mxCell>
        </object>
        <object label="Symbol" Width="12" Height="12" UoM="mm" id="bKZOwYIWIrB60Y2MbUgO-139">
          <mxCell style="locked=1;" parent="bKZOwYIWIrB60Y2MbUgO-0" />
        </object>
        <mxCell id="bKZOwYIWIrB60Y2MbUgO-140" value="" style="ellipse;whiteSpace=wrap;html=1;aspect=fixed;strokeWidth=1;fillColor=none;" parent="bKZOwYIWIrB60Y2MbUgO-139" vertex="1">
          <mxGeometry x="304" y="144" width="192" height="192" as="geometry" />
        </mxCell>
      </root>
    </mxGraphModel>
  </diagram>
</mxfile>
